<svg xmlns="http://www.w3.org/2000/svg" xmlns:xlink="http://www.w3.org/1999/xlink" viewBox="0 0 1135.35 846.77"><defs><style>.cls-1,.cls-14,.cls-24,.cls-9{fill:none;}.cls-2{clip-path:url(#clip-path);}.cls-3{fill:#009ab7;}.cls-4{fill:#00bde4;}.cls-5{fill:#00d0eb;}.cls-6{fill:#0091ab;}.cls-7{fill:#fff;}.cls-8{fill:#c8cdeb;}.cls-9{stroke:#8794ca;stroke-width:1.04px;}.cls-14,.cls-9{stroke-miterlimit:10;}.cls-10{fill:#bdc2e0;}.cls-11{fill:#2eaecc;}.cls-12{fill:#e2e4f7;}.cls-13{fill:#37bde3;}.cls-14{stroke:#00d0eb;}.cls-15{fill:#f2be9b;}.cls-16{fill:#f0667e;}.cls-17{fill:#fb7484;}.cls-18{fill:#6138fd;}.cls-19{fill:#1f2e3b;}.cls-20{fill:#edb48d;}.cls-21{fill:#21283a;}.cls-22{fill:#393f5c;}.cls-23{fill:#232b44;}.cls-24{stroke:#f2be9b;stroke-linecap:round;stroke-linejoin:round;stroke-width:1.52px;}</style><clipPath id="clip-path"><path class="cls-1" d="M945,451.85a78.17,78.17,0,0,0,15.59,101.84c11.55,9.69,25.45,20.63,42.07,32.73,43.93,32,131.65,76.63,28.58,202.55-120.92,147.73-450.58,75.72-680,32.25C-5.83,753.55-3.06,448.08,199.7,409.67,362,378.91,457.52,381,504.4,283.08,611.25,59.93,1137.59,149.43,945,451.85Z"/></clipPath></defs><title>Asset 1</title><g id="Layer_2" data-name="Layer 2"><g id="Layer_1-2" data-name="Layer 1"><g id="Layer_2-2" data-name="Layer 2"><g id="Layer_1-2-2" data-name="Layer 1-2"><g class="cls-2"><path class="cls-3" d="M1034.12,497.23c257.65,185.46-289.67,274.93-369-57.43S52.67,395.56,52.67,395.56L399.43,88.3H1000.6Z"/></g><path class="cls-4" d="M181.43,757.73H1054.1c65.21-102.39-11.33-142.11-51.41-171.31-16.62-12.1-30.52-23-42.07-32.73A78.17,78.17,0,0,1,945,451.85C1137.59,149.43,611.25,59.93,504.4,283.08,457.52,381,362,378.91,199.7,409.67,36.73,440.54,3,644,181.43,757.73Z"/><path class="cls-5" d="M195.55,688.4c-2,.36-53.24.22-61.05-46.51s23-62.14,8.42-113.47-38.61-63.75,6.74-107.79c0,0,20.42-18,18.92-39.67-1.79-26,39.27-61.16,71.18-47.45s28,41.16,7.47,87.22,5,50.69,11.55,64,19.68,26.61-2.55,63S269.9,621,251.4,655.5C251.4,655.48,234.65,681.36,195.55,688.4Z"/><path class="cls-6" d="M211.9,759.52a2.16,2.16,0,0,0,1.28-2.65c-44-140.27-11.59-342.4-11.25-344.43a2.15,2.15,0,0,0-4.24-.69c-.34,2-32.89,205.17,11.39,346.4a2.15,2.15,0,0,0,2.68,1.42h0Z"/><path class="cls-6" d="M191.94,491.46a1.5,1.5,0,0,0,.34-.16,2.13,2.13,0,0,0,.74-2.93h0c-.14-.24-14.4-24.27-21.56-45.38a2.16,2.16,0,0,0-2.73-1.34,2.14,2.14,0,0,0-1.34,2.71h0c7.31,21.55,21.8,45.95,21.94,46.19A2.12,2.12,0,0,0,191.94,491.46Z"/><path class="cls-6" d="M189.74,535.72a2.14,2.14,0,0,0,.78-.52c9.69-10.13,34.71-30,35-30.2a2.15,2.15,0,0,0-2.67-3.37c-1,.82-25.51,20.25-35.4,30.6a2.15,2.15,0,0,0,2.33,3.49Z"/><path class="cls-6" d="M188.63,578.69a2.1,2.1,0,0,0,.42-.22,2.16,2.16,0,0,0,.62-3h0l-18.53-28a2.15,2.15,0,0,0-3.63,2.3.22.22,0,0,0,.05.08l18.53,28A2.13,2.13,0,0,0,188.63,578.69Z"/><path class="cls-5" d="M253.67,270.86S244.61,259,239,253.51c-10-9.83-21.47-27.19-58.14-14.39a79.41,79.41,0,0,0-8.36,3.64c-3.23,1.57-13.25,1.61-23.5-7.7-16.3-14.78-22.68-25.93-45-26.28-26-.4-30.07,36.59-50.26,46.06-12.85,6-46.76,12-53.77,14.69Z"/><path class="cls-5" d="M899.66,34.91a131,131,0,0,0-9.39-9.76c-6.42-5.52-13.78-15.29-37.34-8.09a54.26,54.26,0,0,0-5.36,2.05c-2.08.88-8.51.9-15.1-4.33C822,6.47,817.91.2,803.57,0c-16.69-.22-19.31,20.58-32.28,25.9-8.25,3.39-30,6.76-34.53,8.26Z"/><path class="cls-5" d="M991,212.74a112.93,112.93,0,0,1,8.31-8.64c5.69-4.9,12.22-13.54,33.08-7.17a49.59,49.59,0,0,1,4.76,1.81c1.84.78,7.54.8,13.37-3.83,9.28-7.36,12.9-12.92,25.61-13.09,14.78-.2,17.1,18.23,28.59,22.94,7.32,3,26.61,6,30.6,7.32Z"/><path class="cls-7" d="M856.27,271.56l-1.61-4.6-1.61,4.6a16,16,0,0,1-8.92,9.08h0a16,16,0,0,1,8.92,9.09l1.61,4.6,1.61-4.6a16.07,16.07,0,0,1,8.92-9.09h0A16,16,0,0,1,856.27,271.56Z"/><path class="cls-7" d="M950,657l-1.6-4.6-1.61,4.6a16,16,0,0,1-8.92,9.08h0a16.07,16.07,0,0,1,8.92,9.09l1.61,4.6,1.6-4.6a16.14,16.14,0,0,1,9-9.17h0A16.05,16.05,0,0,1,950,657Z"/><path class="cls-7" d="M318.15,451.38l-2.7-7.72-2.69,7.72c-2.27,6.5-7.66,12-15,15.23h0c7.3,3.24,12.69,8.73,15,15.24l2.69,7.71,2.7-7.71c2.27-6.51,7.66-12,15-15.24h0C325.81,463.37,320.42,457.88,318.15,451.38Z"/><rect class="cls-8" x="364" y="88.3" width="338.38" height="669.43" rx="7.69" ry="7.69"/><rect class="cls-7" x="387.94" y="108.32" width="289.33" height="557.72" rx="6.49" ry="6.49"/><path class="cls-9" d="M559.67,713.69a26.48,26.48,0,1,1-26.49-26.47h0A26.48,26.48,0,0,1,559.67,713.69Z"/><path class="cls-10" d="M683.71,116.31H381.5a8.88,8.88,0,0,1,8.88-8.87H674.84A8.87,8.87,0,0,1,683.71,116.31Z"/><path class="cls-10" d="M313.31,198.66h48.5v29.27a4.2,4.2,0,0,1-4.21,4.21H317.52a4.2,4.2,0,0,1-4.21-4.21V198.66Z"/><path class="cls-11" d="M361.81,198.66H414v29.27a4.2,4.2,0,0,1-4.21,4.21H366a4.2,4.2,0,0,1-4.21-4.21V198.66Z"/><path class="cls-10" d="M458.74,232.14H418.29a4.2,4.2,0,0,1-4.21-4.19V198.66H463v29.27a4.2,4.2,0,0,1-4.21,4.21Z"/><path class="cls-11" d="M463,198.66h46.26v29.27a4.2,4.2,0,0,1-4.21,4.21H467.16a4.2,4.2,0,0,1-4.21-4.21V198.66Z"/><polygon class="cls-12" points="381.5 116.31 313.32 198.67 532.61 198.67 532.61 116.31 381.5 116.31"/><polygon class="cls-13" points="410.97 116.31 361.81 198.66 532.61 198.66 532.61 116.31 410.97 116.31"/><polygon class="cls-12" points="446.39 116.31 414.08 198.66 532.61 198.66 532.61 116.31 446.39 116.31"/><polygon class="cls-13" points="479.51 116.31 462.95 198.66 532.61 198.66 532.61 116.31 479.51 116.31"/><path class="cls-10" d="M509.21,198.66v17.19c0,9,10.36,16.29,23.13,16.29h.53c12.78,0,23.13-7.29,23.13-16.29V198.66Z"/><path class="cls-10" d="M707.62,232.14h40.07A4.2,4.2,0,0,0,751.9,228V198.66H703.41v29.27a4.19,4.19,0,0,0,4.19,4.21Z"/><path class="cls-11" d="M699.2,232.14H655.36a4.2,4.2,0,0,1-4.21-4.21h0V198.66h52.26v29.27a4.2,4.2,0,0,1-4.21,4.21Z"/><path class="cls-10" d="M606.48,232.14h40.45a4.2,4.2,0,0,0,4.21-4.19V198.66H602.27v29.27a4.19,4.19,0,0,0,4.19,4.21Z"/><path class="cls-11" d="M598.06,232.14H560.25a4.2,4.2,0,0,1-4.21-4.21h0V198.66h46.21v29.27A4.21,4.21,0,0,1,598.06,232.14Z"/><polygon class="cls-12" points="683.71 116.31 532.61 116.31 532.61 198.67 751.9 198.67 683.71 116.31"/><polygon class="cls-13" points="654.24 116.31 532.61 116.31 532.61 198.66 703.41 198.66 654.24 116.31"/><polygon class="cls-12" points="532.61 116.31 532.61 198.66 651.14 198.66 618.83 116.31 532.61 116.31"/><polygon class="cls-13" points="532.61 116.31 532.61 198.66 602.27 198.66 585.71 116.31 532.61 116.31"/><polygon class="cls-12" points="515.9 116.31 509.22 198.66 556 198.66 549.31 116.31 515.9 116.31"/><rect class="cls-11" x="410.98" y="107.44" width="35.18" height="8.87"/><rect class="cls-11" x="618.83" y="107.44" width="35.41" height="8.87"/><rect class="cls-11" x="479.51" y="107.44" width="36.4" height="8.87"/><rect class="cls-11" x="549.31" y="107.44" width="36.4" height="8.87"/><rect class="cls-4" x="428.62" y="445.07" width="209.09" height="35.93" rx="4.32" ry="4.32"/><rect class="cls-14" x="428.62" y="398.07" width="209.09" height="35.93" rx="4.32" ry="4.32"/><path class="cls-15" d="M719,434.23l-30.7,27.49L635.66,424.1,623,435.73l62.72,53.16a6.91,6.91,0,0,0,9.77.33l.15-.15,36.61-32.91Z"/><path class="cls-16" d="M742.12,401.27s-2.47-1.7-33.06,32.54l23.77,31.88,13.85-15.3Z"/><path class="cls-15" d="M810.37,435.16l36.27,22.95,1.85,79.08L864,544.64l8.84-94.19a6.92,6.92,0,0,0-3.36-9.19l-.17-.08-43.5-26.4Z"/><path class="cls-17" d="M766.94,395.14l-21.17,4.74a13.77,13.77,0,0,0-10.64,11.67L721,530.88,809,525.11l6-112.46a13.74,13.74,0,0,0-12.57-14.51Z"/><polygon class="cls-15" points="847.64 809.42 841.1 773.16 820.2 776.05 827.96 812.75 847.64 809.42"/><polygon class="cls-15" points="725.5 808.4 726.8 770.44 705.66 769.76 706.2 807.6 725.5 808.4"/><polygon class="cls-18" points="721.01 530.88 713.82 566.14 813.55 561.31 808.93 525.11 721.01 530.88"/><polygon class="cls-18" points="762.7 552.38 740.29 649.02 734.21 796.4 700.68 795.04 698.5 648.1 715.77 556.74 762.7 552.38"/><polygon class="cls-18" points="812.93 556.49 823.09 650.31 852.68 792.33 818.48 799.77 782.35 656.05 767.09 552.43 812.93 556.49"/><path class="cls-19" d="M706.2,807.6l19.3.8-.58,28.93-59.84,3.29h0a10,10,0,0,1,7.89-8.84l32.4-11.19Z"/><polygon class="cls-8" points="724.92 837.33 665.08 840.62 664.94 845.09 724.79 841.79 724.92 837.33"/><path class="cls-19" d="M828,812.75l19.68-3.33,4.93,28.5-57,4.44h0a10.27,10.27,0,0,1,6-10.34l28.63-6.38Z"/><polygon class="cls-8" points="852.57 837.92 795.59 842.36 796.3 846.77 853.29 842.33 852.57 837.92"/><path class="cls-20" d="M770.92,409.59l-2.21-.1a10.84,10.84,0,0,1-10.34-11.21l1.42-41.08,23.88,1.11-1.41,40.82A10.85,10.85,0,0,1,771,409.6Z"/><path class="cls-15" d="M756.61,391.85h-1a28.9,28.9,0,0,1-28.22-29.57l.82-34.86L787,328.78l-.82,34.85a28.9,28.9,0,0,1-29.56,28.22Z"/><path class="cls-21" d="M786,355.58h-8.38a3.62,3.62,0,0,1-3.6-3.64,3.23,3.23,0,0,1,.07-.69c1.19-6,2.61-16.41-1.3-17.71-5.57-1.86-35.61,5.54-45.71-2.37-14.22-11.14-3.62-28.5,9.35-29.06s10.85,14.42,26,14.34,38.13-5.58,27.69,34.33Z"/><path class="cls-15" d="M791,365.57a9.23,9.23,0,1,1,4.53-12.24h0A9.24,9.24,0,0,1,791,365.57Z"/><path class="cls-7" d="M733.87,368.66l19.65,1.3s-1.42,8.65-12,7.21C733.2,376,733.87,368.66,733.87,368.66Z"/><path class="cls-17" d="M806.25,399.05s4.76.48,44.12,24.13l-17.55,35.29L809.64,446.2Z"/><path class="cls-22" d="M801.56,575.22l99.33-.35,7,72.25s-101.08,4.59-100.95,3.3S801.56,575.22,801.56,575.22Z"/><polygon class="cls-23" points="801.56 575.22 789.9 641.9 806.97 650.42 801.56 575.22"/><path class="cls-7" d="M868.92,588h-.16a1.57,1.57,0,0,1-1.46-1.67h0c0-.2,1.3-20.44-6-28.73a9.22,9.22,0,0,0-6.58-3.33,8.44,8.44,0,0,0-6.52,2.38c-8.42,7.61-9.32,29.88-9.33,30.11a1.57,1.57,0,1,1-3.14-.12c0-1,1-23.84,10.35-32.33a11.71,11.71,0,0,1,8.84-3.19,12.41,12.41,0,0,1,8.75,4.41c8.12,9.27,6.79,30.13,6.73,31A1.56,1.56,0,0,1,868.92,588Z"/><path class="cls-15" d="M610.18,433a14.8,14.8,0,1,0,0-.05Z"/><line class="cls-24" x1="633.74" y1="427" x2="612.73" y2="410.72"/><path class="cls-15" d="M839.59,549.94a15.12,15.12,0,1,0,14.59-15.63h0A15.13,15.13,0,0,0,839.59,549.94Z"/><path class="cls-5" d="M564.12,322.81h-4.26V310a27,27,0,0,0-54,0v12.79h-4.27a8.53,8.53,0,0,0-8.53,8.53v34.13a8.53,8.53,0,0,0,8.53,8.53h62.56a8.55,8.55,0,0,0,8.54-8.53V331.34a8.55,8.55,0,0,0-8.55-8.53Zm-18.48,0H520V310a12.8,12.8,0,1,1,25.59-.71c0,.24,0,.47,0,.71Z"/></g></g></g></g></svg>