<svg xmlns="http://www.w3.org/2000/svg" viewBox="0 0 1132.76 1024.09"><defs><style>.cls-1{isolation:isolate;}.cls-2{opacity:0.24;}.cls-3{fill:#5ddcf9;}.cls-4{fill:#9fedff;}.cls-5{fill:#53d5f4;}.cls-11,.cls-15,.cls-6{fill:#37bde3;}.cls-7{fill:#0f7087;}.cls-8{fill:#8ae4f9;}.cls-9{fill:#64ddf9;}.cls-10{fill:#827ddc;}.cls-11,.cls-14,.cls-15{mix-blend-mode:overlay;}.cls-12{fill:#fff;}.cls-13{fill:#56d2ef;}.cls-14{opacity:0.39;}.cls-15{opacity:0.21;}.cls-16{fill:#d2f0ff;}.cls-17{fill:#58d6f4;}.cls-18{fill:#1b8faa;}.cls-19{fill:#47d3f4;}.cls-20{fill:#afe6ff;}.cls-21{fill:#fab9af;}.cls-22{fill:#9ae9fc;}.cls-23{fill:#1d96b2;}.cls-24{fill:#094f60;}.cls-25{fill:#fa968c;}.cls-26{fill:#0a677c;}.cls-27,.cls-28{fill:none;stroke-miterlimit:10;stroke-width:2.96px;}.cls-27{stroke:#1290ad;}.cls-28{stroke:#53d5f4;stroke-linecap:round;}</style></defs><title>Asset 3</title><g class="cls-1"><g id="Layer_2" data-name="Layer 2"><g id="Layer_1-2" data-name="Layer 1"><g class="cls-2"><path class="cls-3" d="M690.33,224.49c-2.92,0-10.27-.54-20.53-1.23a546.89,546.89,0,0,1-209.4-57.43C405.29,138.21,331.84,126.44,292.1,137l-.37.1a27,27,0,0,1-33.09-19.26C249.19,83.46,203.48,59.1,155.22,59.1c-58,0-105,32.51-105,72.6,0,16.93,8.46,32.5,22.52,44.86,40,35.19,62,86.33,57.08,139.41A141.16,141.16,0,0,0,132,357.68a117.57,117.57,0,0,0,5.69,19c15.35,38.9,75.38,87,79.05,123.43,28.18,279.68,101.64,381.38,370.68,421.11s510.16-84,538.58-276.44S1108.22,230.11,690.33,224.49Z"/><path class="cls-3" d="M357.74,21.12a23.47,23.47,0,0,1-14.49-7.25C335.21,5.42,322.78,0,308.83,0c-24.25,0-43.9,16.36-43.9,36.53s19.65,36.53,43.9,36.53A48.56,48.56,0,0,0,339.5,62.63c3.94-3.22,9.09-4.19,14.15-3.64a19,19,0,0,0,4.09-37.87Z"/><path class="cls-3" d="M413.6,91.94c0,5.71-6.39,10.35-14.27,10.35s-14.27-4.64-14.27-10.35,6.39-10.35,14.27-10.35S413.6,86.22,413.6,91.94Z"/><path class="cls-3" d="M965.05,211.88c0,10.09-13.51,18.27-30.18,18.27S904.7,222,904.7,211.88s13.51-18.27,30.17-18.27S965.05,201.79,965.05,211.88Z"/><path class="cls-3" d="M991.33,179.31a9.24,9.24,0,1,1-9.23-9.24A9.23,9.23,0,0,1,991.33,179.31Z"/></g><path class="cls-4" d="M113.68,729.79c-2.73-20.2-7-52.18-26.76-77C56.08,614.05.44,607,.44,607s-5.87,56,25.2,94.53c17,21.1,52.44,36.3,72.26,42.67A20.21,20.21,0,0,1,112,763.77c-1.94,134.63-22.72,199-22.72,199l19.89-2.3C126.2,814.84,117.47,757.83,113.68,729.79Z"/><path class="cls-4" d="M170.36,707c5.34-16.64,13.74-43,34.15-61,31.85-28.08,79.88-25.65,79.88-25.65s-3.44,48.15-35.45,76c-17.52,15.26-49.73,22.78-67.42,25.18A17.32,17.32,0,0,0,166.71,736C148.14,849.92,156,907.4,156,907.4l-16.45-4.92C147,776.94,163,730.12,170.36,707Z"/><path class="cls-5" d="M143,619.54c4.36-20.09,11.19-51.92,33-75.31,34.1-36.5,90.61-39.11,90.61-39.11s1.44,56.76-32.86,93C215,618,178.12,630.5,157.68,635.32A20.39,20.39,0,0,0,142,653.84c-8.77,135.54,2.49,245.87,2.49,245.87l-19.82-3.89C119.09,748,136.92,647.43,143,619.54Z"/><path class="cls-5" d="M100.22,833.79a67.09,67.09,0,0,0-11.7-28.24,46.88,46.88,0,0,0-10.18-10.44c-17.15-12.25-41-8.31-41-8.31s4,23.8,21.14,36.05c10.09,7.21,22.45,8.82,30.93,8.92a9.33,9.33,0,0,1,9.3,9.47c-.59,27.57-6.11,64.85-6.11,64.85l10.81-1.82C106.73,878.07,102.89,849.12,100.22,833.79Z"/><path class="cls-5" d="M204.57,749.88s-22.24,9.37-30.21,28.88c-4.39,10.76-2.12,27.34-1,33.62a18.54,18.54,0,0,1,.17,5.31l-8.33,72.89h13.34a307.89,307.89,0,0,1-1-62.53A18.1,18.1,0,0,1,185,814.9c6.75-4.87,16.92-13.43,20.92-23.25C213.89,772.14,204.57,749.88,204.57,749.88Z"/><path class="cls-6" d="M108.14,1011H161a10.14,10.14,0,0,0,4.89-1.2,65.65,65.65,0,0,0,34.45-57.75V901a10.46,10.46,0,0,0-10.46-10.46H79.27A10.46,10.46,0,0,0,68.81,901v51a65.64,65.64,0,0,0,34.44,57.75A10.17,10.17,0,0,0,108.14,1011Z"/><rect class="cls-7" x="68.81" y="920.31" width="131.51" height="31.25"/><rect class="cls-8" x="68.81" y="920.31" width="131.51" height="7.5"/><path class="cls-9" d="M530.19,699.93l-54.08,45.13a108.07,108.07,0,0,0-38.84,83v183h0a37.81,37.81,0,0,0,37.81-37.82V951.86A159,159,0,0,1,532,829.94l49.92-41.79Z"/><path class="cls-10" d="M723.92,699.93,778,745.06a108.07,108.07,0,0,1,38.84,83v183h0A37.81,37.81,0,0,1,779,973.2V951.86A159,159,0,0,0,722.1,829.94l-49.91-41.79Z"/><path class="cls-11" d="M723.92,699.93,778,745.06a108.07,108.07,0,0,1,38.84,83v183h0A37.81,37.81,0,0,1,779,973.2V951.86A159,159,0,0,0,722.1,829.94l-49.91-41.79Z"/><path class="cls-6" d="M697.13,916.76H558.3a16.15,16.15,0,0,1-16-18.09l12.31-101.82H700.85l12.31,101.82A16.15,16.15,0,0,1,697.13,916.76Z"/><path class="cls-6" d="M697.13,916.76H659V796.85h41.86l12.31,101.82A16.15,16.15,0,0,1,697.13,916.76Z"/><path class="cls-12" d="M676.35,820.05a50.69,50.69,0,0,0,49.78-40.88c11-56.32,17.41-122.82,17.41-194,0-203.14-90.52-415-115.83-415-30,0-115.82,211.91-115.82,415.05,0,71.23,6.38,137.73,17.41,194a50.69,50.69,0,0,0,49.78,40.88Z"/><path class="cls-12" d="M706.57,338.74c-28.09-98.4-64.28-168.67-78.86-168.67-17.26,0-53,70.27-80.3,168.67Z"/><path class="cls-6" d="M699,313.6c-26.72-85-58-143.53-71.32-143.53-15.75,0-46.92,58.53-73,143.53Z"/><path class="cls-13" d="M569.24,313.6h15.47c14.42-47,20.94-80.24,32.9-111.42a2.25,2.25,0,0,0-4-2C601.61,220.66,586.94,255.85,569.24,313.6Z"/><path class="cls-14" d="M709.54,551.34a82.66,82.66,0,1,1-82.65-82.66A82.65,82.65,0,0,1,709.54,551.34Z"/><path class="cls-6" d="M709.54,542.63A82.66,82.66,0,1,1,626.89,460,82.65,82.65,0,0,1,709.54,542.63Z"/><path class="cls-15" d="M626.89,460l-.89,0V625.27l.89,0a82.66,82.66,0,0,0,0-165.31Z"/><path class="cls-16" d="M683.44,542.63a56.56,56.56,0,1,1-56.55-56.55A56.55,56.55,0,0,1,683.44,542.63Z"/><path class="cls-17" d="M557.1,916.76H698.24a0,0,0,0,1,0,0v36.71a4.38,4.38,0,0,1-4.38,4.38H561.48a4.38,4.38,0,0,1-4.38-4.38V916.76A0,0,0,0,1,557.1,916.76Z"/><path class="cls-18" d="M667.77,916.76h30.46a0,0,0,0,1,0,0v36.71a4.38,4.38,0,0,1-4.38,4.38H667.77a0,0,0,0,1,0,0V916.76A0,0,0,0,1,667.77,916.76Z"/><path class="cls-19" d="M628.58,1010l-.87,1h0a54.75,54.75,0,0,1-14-34.84L606.14,737a55.58,55.58,0,0,1,21.53-45.72l0,0h0A55.56,55.56,0,0,1,649.24,737l-8,239.73A54.71,54.71,0,0,1,628.58,1010Z"/><path class="cls-11" d="M628.58,1010l-.87,1h0l0-319.76,0,0h0A55.56,55.56,0,0,1,649.24,737l-8,239.73A54.71,54.71,0,0,1,628.58,1010Z"/><path class="cls-20" d="M658.21,495.56c0,1.11.09,2.23.09,3.36a73.21,73.21,0,0,1-73.21,73.2c-2.22,0-4.41-.12-6.58-.31a56.52,56.52,0,1,0,79.7-76.25Z"/><path class="cls-21" d="M927.5,959.76l6.09,23.88a9.33,9.33,0,0,0,1.19,2.51l4.32,6.41a7.31,7.31,0,0,1-3.92,11.07s-8.71,3.06-17.68,6c-9.19,3-20.74.49-20.74-1.93,0-5.39,5-1.11,13.43-6.74,2.82-1.88,5.73-3.86,8.32-5.89,7.24-5.68.92-20.07-3.51-28.17-1.6-2.91.1-10.18,3.34-10.88l2.1-.45A6.07,6.07,0,0,1,927.5,959.76Z"/><path class="cls-21" d="M922.06,755.24c-1.75-4.41-3-9-3.89-10.7a24,24,0,0,0-2.33-2.75c-1.22-1.44-3.33-3.46-3.61-5.31l-1.3-7.8c-.56-3.78-2.82-6.37-6.6-5.81h0c-4.09.62-5.42,4.39-4.34,8.38l.82,5.47c.86,3.2.2,6.47-.29,9.75-1,6.66,1.75,13.94,4.5,19.58,1.73,3.53,6.8,5.1,13.66,6.81,3.36.84,8.84,1.14,6.23-2.37-2.19-2.94-12.4-6.22-11.06-16.71.07-.52.33-1.83,1-1.94,1.87-.34,2.84,3.78,4.05,5.68,1.69,2.67,3.87,3.53,5,3S923.31,758.39,922.06,755.24Z"/><path class="cls-22" d="M943.44,511.82c-10.79,34-38.49,97.64-78.84,120.23-27.59,15.45-94,37.72-94,37.72a44.35,44.35,0,0,1-3.63-5.22,32.6,32.6,0,0,1-2.41-5.9s82.67-42.4,93.75-54.68,48.07-90.67,59.14-103C930.39,486.68,949.48,492.77,943.44,511.82Z"/><polygon class="cls-21" points="907.48 676.37 933.63 492.65 1004.17 482.97 1040.86 675.05 907.48 676.37"/><path class="cls-21" d="M1059,955.25l7.13,23.69a11.18,11.18,0,0,0,1.4,2.94l5.06,7.52a8.56,8.56,0,0,1-4.6,13s-10.2,3.58-20.71,7c-10.77,3.54-24.3.58-24.3-2.26,0-6.31,5.88-1.3,15.73-7.89,3.31-2.21,6.72-4.52,9.75-6.91,8.48-6.65,1.08-23.51-4.11-33a5.81,5.81,0,0,1,3.92-8.46l2.45-.53A7.11,7.11,0,0,1,1059,955.25Z"/><path class="cls-23" d="M986.06,678.15l-78.16-6.56s-27.66,99.26-35,143.33c-5.32,31.93,43,155.35,43,155.35,4.78,2.09,9.43-.57,14.38-1.8,0,0-14.68-109-9.68-135.56,5.21-27.69,46.93-83.79,49.61-98.49A338.17,338.17,0,0,1,986.06,678.15Z"/><path class="cls-23" d="M969.93,679.14c-8.07,43.31-26.1,108.08,8.63,168.92s71.2,124.1,71.2,124.1c4.7.19,9-1.51,12.92-4.52,0,0-6.09-27.58-14.89-59.79C1037.72,871,1025,827.67,1028.6,805.07c6.81-42.35,14.63-98.75,12.26-126.13S974.17,656.37,969.93,679.14Z"/><path class="cls-16" d="M908.56,679a6.87,6.87,0,0,1-3.78-7.29l28.85-179.05,70.54-9.68L1042.08,672a6.48,6.48,0,0,1-5.14,7.67,451.59,451.59,0,0,1-80.27,7.7C930.2,687.39,915.33,682.25,908.56,679Z"/><path class="cls-22" d="M988.32,530.37c8.6,23.27,22.28,69.23,14.43,109.61-11.06,56.89-25.29,79.89-6.85,93.15s53.8-8.86,54.82-16.24-6.88-98-15.84-137.22-34-95.68-34-95.68l-13.08,1.18S984.22,519.28,988.32,530.37Z"/><path class="cls-22" d="M946,491s-5.48,25.51-1.21,63.5S959,708.12,924.39,725.59c-10.95,5.53-35.94-23-35.94-28.05,0-9.09,8.34-39.52,16.25-67.17,6.35-22.22,12.76-96.45,15-124.8a13.91,13.91,0,0,1,12-12.66Z"/><path class="cls-24" d="M997.11,413.29s-1.34,10.63,5.07,18.4-2.91,15-5.07,20.31.51,13.15-5.57,16.74-23.41,4.54-26.16-1.78S977.55,409.67,997.11,413.29Z"/><path class="cls-24" d="M927.29,427.29c-.94,34.77,31.42,41.45,50.24,41.45s19.58-41.68,19.58-56.7-14.79-17.39-33.61-17.39c-14.82,0-28.85,11.49-34.63,22.5C927.31,420.12,927.37,424.1,927.29,427.29Z"/><path class="cls-21" d="M962.62,408.08c15.74,0,21.61,11.2,21.91,31.94.12,7.76-3.37,15.45-6.19,20.36a15.39,15.39,0,0,0-1.47,12l3.46,11.7c2.35,10.85-2.8,16.81-10.41,19a14.79,14.79,0,0,1-11.58-1.89c-3.91-2.53-4.24-8-3.51-12.57l.89-3.34a8.29,8.29,0,0,0-5.94-10.33c-12.13-2.65-13.86-15.29-17.11-34.91C929.28,419.56,946.87,408.08,962.62,408.08Z"/><path class="cls-24" d="M926,399l9,2.75a17.85,17.85,0,0,0,10.19.06l18-5.23c10.92,0,28.95,6.17,26.67,21.93l-2,11.14a10,10,0,0,1-9,8.17h0a3.54,3.54,0,0,1-7-.93h0a10.7,10.7,0,0,0-8.43-10.41,39.47,39.47,0,0,0-19.16.13c-12.53,3.37-25.74-4.39-27-17.31-.08-.81-.12-1.65-.12-2.49C917.19,401.58,921.49,397.74,926,399Z"/><path class="cls-21" d="M975.86,440.4c0,4.8,1.78,8.7,6.41,8.7s7.6-6.61,7.6-11.42-3-6-7.6-6S975.86,435.59,975.86,440.4Z"/><path class="cls-25" d="M937.31,454.76a3.61,3.61,0,0,0,3.53,4.38h0a3.61,3.61,0,0,0,3.6-3.4l0-15.33a2.15,2.15,0,0,0-2.16-2.16,1.73,1.73,0,0,0-1.69,1.37Z"/><path class="cls-20" d="M969.68,518.55a2.13,2.13,0,0,1,2,1.5c2.43,7.71,13.4,43.3,15.86,62.48,2,15.64-4.33,43.16-8,57.16a21.6,21.6,0,0,1-10,13.17l-2.47,1.46a4.39,4.39,0,0,1-6-1.59l-2-3.49a10.11,10.11,0,0,1-.7-8.68c4.27-11.09,14.73-40.56,13.84-60.12-.32-6.88-7-48.76-8.7-59.42a2.13,2.13,0,0,1,2.11-2.47Z"/><path class="cls-26" d="M967.26,513.36a2.13,2.13,0,0,1,2,1.55c2.26,7.77,12.43,43.59,14.44,62.82,1.65,15.68-5.29,43.06-9.25,57a21.58,21.58,0,0,1-10.24,12.94l-2.51,1.4a4.39,4.39,0,0,1-6-1.72l-1.94-3.54a10.12,10.12,0,0,1-.5-8.69c4.51-11,15.64-40.21,15.19-59.79-.17-6.89-5.89-48.9-7.36-59.6a2.14,2.14,0,0,1,2.17-2.42Z"/><path class="cls-26" d="M961.4,514.43h6.78a2.07,2.07,0,0,0,2.06-2.07v-6.77a2.07,2.07,0,0,0-2.06-2.07l-6.12-.66a3.37,3.37,0,0,0-2.72,2.73v6.77A2.07,2.07,0,0,0,961.4,514.43Z"/><path class="cls-12" d="M979.9,482.64l11.43,2s-2.27,18.44-11.39,32.26a1.71,1.71,0,0,1-2.8,0L969,505.66a4,4,0,0,1-.19-4.4Z"/><path class="cls-12" d="M955.08,487.52l-11.42,3.75s-.36,11.4,8.44,24.53a1.68,1.68,0,0,0,2.78,0l6.64-10.3a4.11,4.11,0,0,0,.24-4Z"/><path class="cls-6" d="M977,629.54V605.71a10,10,0,0,0-10-10h-7.41a11.06,11.06,0,0,1-10.46-7.42,91.08,91.08,0,0,0-4.1-9.87,11.09,11.09,0,0,1,2.14-12.67l5.25-5.25a10,10,0,0,0,0-14.14l-16.85-16.85a10,10,0,0,0-14.14,0l-5.24,5.25a11.07,11.07,0,0,1-12.68,2.13,90.2,90.2,0,0,0-9.87-4.09,11,11,0,0,1-7.42-10.46v-7.41a10,10,0,0,0-10-10H852.38a10,10,0,0,0-10,10v7.41A11,11,0,0,1,835,532.8a92,92,0,0,0-9.88,4.09,11,11,0,0,1-12.66-2.13l-5.25-5.25a10,10,0,0,0-14.14,0l-16.84,16.85a10,10,0,0,0,0,14.14l5.24,5.25a11.07,11.07,0,0,1,2.14,12.67,89.06,89.06,0,0,0-4.09,9.87A11.08,11.08,0,0,1,769,595.71H761.6a10,10,0,0,0-10,10v23.83a10,10,0,0,0,10,10H769A11.09,11.09,0,0,1,779.48,647a89.06,89.06,0,0,0,4.09,9.87,11.07,11.07,0,0,1-2.14,12.67l-5.24,5.25a10,10,0,0,0,0,14.14L793,705.74a10,10,0,0,0,14.14,0l5.25-5.25a11.06,11.06,0,0,1,12.66-2.14,88.1,88.1,0,0,0,9.88,4.09,11.07,11.07,0,0,1,7.42,10.47v7.41a10,10,0,0,0,10,10h23.83a10,10,0,0,0,10-10v-7.41a11.07,11.07,0,0,1,7.42-10.47,86.42,86.42,0,0,0,9.87-4.09,11.09,11.09,0,0,1,12.68,2.14l5.24,5.25a10,10,0,0,0,14.14,0l16.85-16.85a10,10,0,0,0,0-14.14l-5.25-5.25A11.09,11.09,0,0,1,945,656.83a91.08,91.08,0,0,0,4.1-9.87,11.07,11.07,0,0,1,10.46-7.43H967A10,10,0,0,0,977,629.54ZM868.7,671.71A54.26,54.26,0,1,1,918.38,622,54.27,54.27,0,0,1,868.7,671.71Z"/><path class="cls-6" d="M1010.34,633.07V602.18a12.94,12.94,0,0,0-13-12.95h-9.6a14.34,14.34,0,0,1-13.57-9.63,116.61,116.61,0,0,0-5.3-12.79,14.35,14.35,0,0,1,2.77-16.42l6.8-6.8a13,13,0,0,0,0-18.32l-21.84-21.84a13,13,0,0,0-18.32,0l-6.8,6.79A14.34,14.34,0,0,1,915.11,513a116.61,116.61,0,0,0-12.79-5.3,14.34,14.34,0,0,1-9.63-13.57v-9.6a13,13,0,0,0-13-13H848.85a13,13,0,0,0-13,13v9.6a14.34,14.34,0,0,1-9.63,13.57,115.8,115.8,0,0,0-12.79,5.3,14.34,14.34,0,0,1-16.42-2.78l-6.79-6.79a13,13,0,0,0-18.33,0L750.1,525.27a13,13,0,0,0,0,18.32l6.8,6.8a14.35,14.35,0,0,1,2.77,16.42,116.61,116.61,0,0,0-5.3,12.79,14.34,14.34,0,0,1-13.57,9.63h-9.6a13,13,0,0,0-13,12.95v30.89a13,13,0,0,0,13,12.95h9.6a14.35,14.35,0,0,1,13.57,9.62,116,116,0,0,0,5.3,12.8,14.35,14.35,0,0,1-2.77,16.42l-6.8,6.79a13,13,0,0,0,0,18.33l21.84,21.83a13,13,0,0,0,18.33,0l6.79-6.79a14.34,14.34,0,0,1,16.42-2.77,115.8,115.8,0,0,0,12.79,5.3,14.34,14.34,0,0,1,9.63,13.57v9.6a13,13,0,0,0,13,12.95h30.89a13,13,0,0,0,13-12.95v-9.6a14.34,14.34,0,0,1,9.63-13.57,116.61,116.61,0,0,0,12.79-5.3A14.34,14.34,0,0,1,931.53,725l6.8,6.79a12.93,12.93,0,0,0,18.32,0L978.49,710a13,13,0,0,0,0-18.33l-6.8-6.79a14.35,14.35,0,0,1-2.77-16.42,116,116,0,0,0,5.3-12.8A14.35,14.35,0,0,1,987.79,646h9.6A13,13,0,0,0,1010.34,633.07ZM870,687.72a70.33,70.33,0,1,1,64.39-64.39A70.34,70.34,0,0,1,870,687.72Z"/><circle class="cls-27" cx="864.3" cy="617.62" r="93.76" transform="translate(-183.58 792.05) rotate(-45)"/><path class="cls-28" d="M770.54,617.62a93.76,93.76,0,0,1,93.76-93.76"/><path class="cls-21" d="M866.26,524.24a6.43,6.43,0,0,0,1-8.76l-2.45-3.28c-2.85-3.79-5-8.18-4.84-12.92.08-3.23-2-12.33-5.36-11.76-2.89.48.18,11.68-2.74,11.4-1.36-.12-6.18-8.09-9.74-12.84-1.94-2.59-5.58-3.87-6.21-1.55-.4,1.45-1.86,1.7-3.69,3s-.8,9.36-.76,11.5c0,2.67-1,3.48,3.2,8.21,3.16,3.61,17,12.6,17,12.6l6.09,4.2a6.43,6.43,0,0,0,8.55.21Z"/><path class="cls-22" d="M864.3,511.5s57,54.68,70.31,59.24,51.58-74.65,58.42-82.82c11.33-13.54,35.8.42,31.58,25.48-5.33,31.61-80.73,92.51-90,93.38s-80-83.41-80-83.41C855.3,519.51,858.65,515.54,864.3,511.5Z"/><path class="cls-16" d="M1115.43,1024.09H55.13a6.53,6.53,0,0,1-6.53-6.54h0a6.53,6.53,0,0,1,6.53-6.53h1060.3a6.53,6.53,0,0,1,6.53,6.53h0A6.53,6.53,0,0,1,1115.43,1024.09Z"/></g></g></g></svg>